<svg width="60" height="60" viewBox="0 0 60 60" fill="none" xmlns="http://www.w3.org/2000/svg">
<g id="robot_svgrepo.com" clip-path="url(#clip0_7_66)">
<path id="Vector" d="M20 34C20 32.8954 20.8954 32 22 32C23.1046 32 24 32.8954 24 34C24 35.1046 23.1046 36 22 36C20.8954 36 20 35.1046 20 34Z" fill="black"/>
<path id="Vector_2" d="M36 34C36 32.8954 36.8954 32 38 32C39.1046 32 40 32.8954 40 34C40 35.1046 39.1046 36 38 36C36.8954 36 36 35.1046 36 34Z" fill="black"/>
<path id="Vector_3" fill-rule="evenodd" clip-rule="evenodd" d="M32 8.08968C43.2132 9.10016 52 18.5239 52 30V54C52 57.3136 49.3136 60 46 60H14C10.6863 60 8 57.3136 8 54V30C8 18.5239 16.787 9.10016 28 8.08968V0H32V8.08968ZM22 28C18.6863 28 16 30.6863 16 34C16 37.3137 18.6863 40 22 40C25.3137 40 28 37.3137 28 34C28 30.6863 25.3137 28 22 28ZM38 28C34.6863 28 32 30.6863 32 34C32 37.3137 34.6863 40 38 40C41.3136 40 44 37.3137 44 34C44 30.6863 41.3136 28 38 28ZM44 48H16V44H44V48Z" fill="black"/>
<path id="Vector_4" d="M0 32V48H4V32H0Z" fill="black"/>
<path id="Vector_5" d="M60 32H56V48H60V32Z" fill="black"/>
</g>
<defs>
<clipPath id="clip0_7_66">
<rect width="60" height="60" fill="white"/>
</clipPath>
</defs>
</svg>
