<svg width="60" height="60" viewBox="0 0 60 60" fill="none" xmlns="http://www.w3.org/2000/svg">
<g id="command-badged_svgrepo.com" clip-path="url(#clip0_7_58)">
<path id="Vector" d="M50 22.5C47.6305 22.501 45.3097 21.8277 43.3087 20.5586C41.3077 19.2895 39.7092 17.4772 38.7 15.3333H6.66671V11.6667H37.6167C37.5408 11.1143 37.5018 10.5575 37.5 10C37.5018 9.44248 37.5408 8.88569 37.6167 8.33334H6.66671C5.78265 8.33334 4.93481 8.68453 4.30968 9.30965C3.68456 9.93478 3.33337 10.7826 3.33337 11.6667V48.3333C3.33337 49.2174 3.68456 50.0652 4.30968 50.6904C4.93481 51.3155 5.78265 51.6667 6.66671 51.6667H53.3334C54.2174 51.6667 55.0653 51.3155 55.6904 50.6904C56.3155 50.0652 56.6667 49.2174 56.6667 48.3333V20.5667C54.6731 21.8309 52.3607 22.5015 50 22.5ZM28 33.05L11.3334 40.7V36.3L22.1834 31.3L11.3334 26.3V21.95L28 29.6V33.05ZM39 42.3333H28.3334V38.3333H39V42.3333Z" fill="black"/>
<path id="Vector_2" d="M50 18.3333C54.6023 18.3333 58.3333 14.6024 58.3333 9.99999C58.3333 5.39762 54.6023 1.66666 50 1.66666C45.3976 1.66666 41.6666 5.39762 41.6666 9.99999C41.6666 14.6024 45.3976 18.3333 50 18.3333Z" fill="black"/>
</g>
<defs>
<clipPath id="clip0_7_58">
<rect width="60" height="60" fill="white"/>
</clipPath>
</defs>
</svg>
