<svg width="60" height="60" viewBox="0 0 60 60" fill="none" xmlns="http://www.w3.org/2000/svg">
<g id="question-mark-in-circular-shape_svgrepo.com">
<g id="Group">
<g id="Group_2">
<path id="Vector" d="M51.2964 19.2377C50.9882 16.9003 49.7538 14.3979 47.6788 12.3223C45.6038 10.2472 43.102 9.01351 40.765 8.7052C39.7073 8.56574 38.2953 7.98122 37.4491 7.33194C35.5777 5.89673 32.9359 5 30.0006 5C27.0653 5 24.4235 5.89673 22.5527 7.33194C21.7064 7.98122 20.2943 8.56574 19.2366 8.7052C16.8992 9.01351 14.3979 10.2472 12.3228 12.3223C10.2478 14.3979 9.01342 16.9004 8.7052 19.2377C8.56628 20.2954 7.98122 21.7063 7.33248 22.5527C5.89673 24.4235 5 27.0653 5 30.0005C5 32.9358 5.89673 35.5777 7.33194 37.4485C7.98122 38.2948 8.56574 39.7062 8.70466 40.7634C9.01297 43.1007 10.2472 45.6032 12.3223 47.6788C14.3974 49.7538 16.8992 50.9877 19.2361 51.2959C20.2938 51.4354 21.7059 52.02 22.5521 52.6692C24.423 54.1044 27.0648 55.001 30 55.001C32.9353 55.001 35.5772 54.1044 37.4481 52.6692C38.2943 52.02 39.7063 51.4354 40.764 51.2959C43.1016 50.9877 45.6028 49.7538 47.6778 47.6788C49.7528 45.6032 50.9872 43.1007 51.2954 40.7634C51.4344 39.7057 52.0195 38.2948 52.6682 37.4485C54.1034 35.5777 55 32.9359 55 30.0005C55 27.0653 54.1034 24.4234 52.6682 22.5527C52.02 21.7063 51.4355 20.2954 51.2964 19.2377ZM32.9934 44.1783C32.9934 44.7901 32.4974 45.2853 31.8864 45.2853H28.3002C27.6892 45.2853 27.1932 44.79 27.1932 44.1783V40.5923C27.1932 39.9806 27.6891 39.4853 28.3002 39.4853H31.8864C32.4974 39.4853 32.9934 39.9807 32.9934 40.5923V44.1783ZM39.7744 27.0382C39.0514 28.1806 37.5072 29.7354 35.1404 31.7031C33.9155 32.7215 33.1551 33.5402 32.8593 34.1595C32.638 34.6239 32.5063 35.3629 32.4665 36.3762C32.4426 36.9874 31.9611 37.4827 31.3493 37.4827H28.2997C27.6886 37.4827 27.1871 37.1727 27.181 36.7908C27.1755 36.4367 27.1721 36.2063 27.1721 36.0996C27.1721 34.3931 27.4545 32.9894 28.0184 31.8885C28.583 30.7876 29.711 29.5495 31.4035 28.1729C33.0963 26.7969 34.1073 25.8952 34.4374 25.469C34.9466 24.7949 35.2011 24.0515 35.2011 23.2396C35.2011 22.1109 34.7512 21.1446 33.8495 20.3392C32.9479 19.5339 31.734 19.1314 30.2064 19.1314C29.157 19.1314 28.231 19.3445 27.4262 19.7707C26.886 20.0568 26.1233 20.7072 25.7552 21.1954C25.3445 21.74 25.0119 22.3954 24.7573 23.1614C24.5641 23.7415 23.9762 24.1688 23.3691 24.0935L20.2413 23.7055C19.634 23.6302 19.1653 23.0729 19.2737 22.4712C19.6335 20.4786 20.6392 18.7528 22.2903 17.2943C24.2375 15.574 26.7935 14.7139 29.9584 14.7139C33.2889 14.7139 35.9372 15.5845 37.9051 17.3253C39.8727 19.0661 40.857 21.0925 40.857 23.4044C40.8581 24.6853 40.4967 25.8963 39.7744 27.0382Z" fill="black"/>
</g>
</g>
</g>
</svg>
