<svg width="60" height="60" viewBox="0 0 60 60" fill="none" xmlns="http://www.w3.org/2000/svg">
<g id="home-1_svgrepo.com">
<path id="Vector" fill-rule="evenodd" clip-rule="evenodd" d="M53.8287 28.9643L51.875 27.4013V53.125H55C56.0355 53.125 56.875 53.9645 56.875 55C56.875 56.0358 56.0355 56.875 55 56.875H5.00007C3.96452 56.875 3.12507 56.0358 3.12507 55C3.12507 53.9645 3.96452 53.125 5.00007 53.125H8.12507V27.4013L6.17137 28.9643C5.36275 29.6113 4.18282 29.48 3.53595 28.6715C2.88905 27.8628 3.02015 26.6828 3.82877 26.036L24.1435 9.78415C27.5675 7.045 32.4327 7.045 35.8565 9.78415L56.1712 26.036C56.98 26.6828 57.111 27.8628 56.4642 28.6715C55.8172 29.48 54.6375 29.6113 53.8287 28.9643ZM30 16.8751C26.203 16.8751 23.1251 19.9532 23.1251 23.7501C23.1251 27.547 26.203 30.625 30 30.625C33.797 30.625 36.875 27.547 36.875 23.7501C36.875 19.9532 33.797 16.8751 30 16.8751ZM34.3647 33.279C33.2177 33.125 31.7857 33.125 30.1235 33.125H29.8767C28.2145 33.125 26.7822 33.125 25.6355 33.279C24.4064 33.4443 23.2282 33.817 22.2726 34.7728C21.317 35.7283 20.9443 36.9065 20.7791 38.1355C20.6249 39.2823 20.625 40.7145 20.6251 42.3768V53.125H24.3751H35.625H39.375V42.3768V42.0678C39.3745 40.5365 39.3655 39.2108 39.221 38.1355C39.0557 36.9065 38.6832 35.7283 37.7275 34.7728C36.772 33.817 35.5937 33.4443 34.3647 33.279Z" fill="black"/>
<g id="Group" opacity="0.5">
<path id="Vector_2" fill-rule="evenodd" clip-rule="evenodd" d="M26.875 23.75C26.875 22.0241 28.274 20.625 30 20.625C31.726 20.625 33.125 22.0241 33.125 23.75C33.125 25.476 31.726 26.875 30 26.875C28.274 26.875 26.875 25.476 26.875 23.75Z" fill="#1C274C"/>
<path id="Vector_3" fill-rule="evenodd" clip-rule="evenodd" d="M26.875 23.75C26.875 22.0241 28.274 20.625 30 20.625C31.726 20.625 33.125 22.0241 33.125 23.75C33.125 25.476 31.726 26.875 30 26.875C28.274 26.875 26.875 25.476 26.875 23.75Z" fill="#1C274C"/>
</g>
<path id="Vector_4" opacity="0.5" d="M30.1235 33.125C31.7855 33.125 33.2178 33.1247 34.3645 33.279C35.5938 33.4442 36.7718 33.817 37.7275 34.7725C38.683 35.7283 39.0558 36.9062 39.221 38.1355C39.3655 39.2105 39.3745 40.5365 39.375 42.0675V53.125H20.625V42.3765C20.6249 40.7145 20.6248 39.2822 20.779 38.1355C20.9443 36.9062 21.3169 35.7283 22.2725 34.7725C23.2282 33.817 24.4063 33.4442 25.6355 33.279C26.7823 33.1247 28.2145 33.125 29.8765 33.125H30.1235Z" fill="#1C274C"/>
<path id="Vector_5" opacity="0.5" d="M40 7.5H46.25C46.9403 7.5 47.5 8.05965 47.5 8.75V19.0989L38.75 12.0989V8.75C38.75 8.05965 39.3097 7.5 40 7.5Z" fill="#1C274C"/>
</g>
</svg>
