<svg width="186" height="165" viewBox="0 0 186 165" fill="none" xmlns="http://www.w3.org/2000/svg">
<g id="noun-dobby-2210001 1" clip-path="url(#clip0_4_25)">
<g id="Group">
<path id="Vector" fill-rule="evenodd" clip-rule="evenodd" d="M177.966 45.8674C170.537 43.4721 168.964 44.0304 164.524 50.989C162.299 54.4729 160.255 58.0859 158.105 61.6262C156.39 64.4533 154.107 66.058 150.794 66.4639C148.156 66.79 145.604 68.0217 143.057 68.9718C142.58 69.1502 142.167 69.8376 141.933 70.3889C136.909 82.3071 128.315 89.6363 116.203 92.8247C116.827 93.5566 117.298 94.1901 117.845 94.732C120.629 97.4957 122.262 100.689 121.825 104.933C121.615 106.962 121.622 109.102 121.991 111.091C122.311 112.809 123 114.634 124.019 115.985C126.397 119.143 127.313 127.847 125.344 131.305C124.328 133.088 122.626 133.103 121.587 131.31C121.271 130.77 121.09 130.146 120.713 129.234C120.282 130.013 120.114 130.738 119.688 131.003C118.927 131.474 117.942 132.03 117.185 131.864C116.673 131.749 116.154 130.494 116.048 129.691C115.786 127.685 115.664 123.645 114.686 123.336C113.596 122.693 111.816 125.018 112.483 127.854C112.883 129.555 112.022 129.954 109.421 129.49C109.887 131.287 110.232 133.004 110.775 134.644C112.174 138.869 111.889 142.841 109.797 146.797C108.028 150.133 108.984 151.855 112.463 153.441C114.85 154.527 117.192 155.937 119.196 157.671C120.291 158.614 120.832 160.46 121.28 162.016C121.686 163.433 120.958 163.808 119.472 164.714C116.487 166.534 110.015 163.714 106.945 162.619C106.004 162.283 104.841 162.344 103.843 162.56C101.58 163.041 99.5164 162.825 98.1787 160.681C96.8432 158.541 96.3178 156.259 98.1015 153.922C98.4657 153.446 98.4944 152.287 98.2074 151.705C96.3796 148.012 97.0352 144.479 98.4193 140.868C98.8343 139.787 98.7637 138.499 98.8675 137.691C96.1655 137.365 93.9757 137.077 91.7793 136.859C91.3289 136.812 90.7307 136.849 90.415 137.124C88.1281 139.109 85.552 139.547 82.7198 138.834C83.2672 141.152 83.8235 143.367 84.2937 145.598C84.4262 146.222 84.4063 146.93 84.2716 147.559C83.6933 150.295 82.7529 152.617 84.0906 155.839C85.5741 159.405 82.0068 162.905 78.2651 162.103C76.093 161.636 74.3402 162.03 72.4528 163.029C70.8899 163.86 69.1814 164.812 67.5103 164.871C65.2896 164.948 62.6031 165.143 60.8437 163.703C60.4927 163.414 60.0844 161.901 60.219 161.03C60.8548 156.876 64.1549 155.311 67.1085 153.488C69.0357 152.301 71.0511 151.275 73.2277 150.065C70.8701 144.723 68.2012 139.85 70.7465 134.325C67.9805 132.134 67.9253 131.167 68.9871 127.493C70.8105 121.175 72.3954 114.775 74.0797 108.41C73.8325 108.29 73.5809 108.166 73.3336 108.049C70.3337 109.914 67.3116 111.746 64.347 113.674C63.8989 113.968 63.5942 114.655 63.4088 115.228C63.2124 115.833 63.3514 116.565 63.1439 117.165C61.9673 120.539 61.4883 124.084 66.2123 123.866C67.8458 123.791 68.1681 127.714 67.3403 128.922C66.7024 129.851 63.1616 130.63 62.2808 129.515C60.7312 127.559 58.9034 126.665 56.6782 126.217C54.5414 125.78 54.1154 124.506 55.3052 122.587C56.4244 120.781 57.5325 118.97 58.9917 116.6C56.793 117.346 55.3471 118.306 53.9851 118.181C52.4973 118.048 51.0845 116.936 49.6519 116.215C49.1817 115.981 48.6806 115.725 48.3274 115.34C46.7601 113.628 47.2987 109.979 49.5393 106.831C51.3317 104.311 53.2103 103.706 55.4619 104.921C57.6363 106.099 62.2367 105.224 63.5214 103.094C65.5015 99.809 67.2366 96.3532 68.7619 93.5472C63.8812 90.6756 59.2014 88.2943 54.9034 85.2913C50.643 82.3165 47.2722 78.0888 45.4135 73.0775C43.8219 68.7888 40.5328 67.0903 37.2172 66.8697C31.193 66.4733 28.1246 62.8204 25.4006 57.9287C23.4293 54.3885 21.2902 50.9163 18.8819 47.7044C15.9349 43.77 13.7826 43.4064 9.39197 45.2927C4.93509 47.2047 2.95498 46.8059 0.551045 43.5026C-0.0824994 42.0198 -0.128856 40.8961 0.551045 38.9957C2.77397 32.687 6.40968 27.3426 10.4383 22.2094C19.0872 11.185 30.2371 7.40077 43.2987 9.25653C45.568 9.5803 47.4709 9.54276 49.6011 8.48701C50.9498 7.81603 52.8019 8.27587 54.4288 8.24771C54.9939 8.23833 55.7401 8.54567 56.0977 8.26648C60.8901 4.53618 65.9143 2.38715 72.0974 1.64813C86.6778 -0.252212 101.21 -0.0105636 113.212 1.5754C120.317 2.60299 123.282 4.88106 127.836 6.9902C129.441 7.73157 130.602 8.66532 132.598 7.97791C133.9 7.5298 135.617 8.47528 137.156 8.74978C138.553 8.99846 140.01 9.55449 141.357 9.34803C154.231 7.37731 165.48 10.392 174.398 21.0293C179.043 26.5684 183.107 32.4829 185.447 39.5635C185.99 45.4475 181.791 47.0991 177.966 45.8674ZM108.254 90.3401C126.313 90.3378 140.187 77.026 141.668 57.9334C142.147 51.7796 142.041 45.5554 141.882 39.3711C141.383 20.2879 128.686 5.52623 111.198 4.56199C99.1368 3.89569 86.9979 3.97312 74.9252 4.52914C59.74 5.23297 47.206 16.9166 44.8528 32.7809C43.6939 40.5817 43.9588 48.6851 44.153 56.6361C44.557 73.1596 55.8747 87.2855 71.2409 89.634C78.3181 90.7155 103.134 90.3425 108.254 90.3401ZM71.0952 130.705C76.3954 128.57 79.8479 129.844 82.3644 134.576C83.5145 136.739 86.7683 136.629 88.3775 134.595C89.7815 132.821 91.0905 132.826 92.7528 133.802C94.4503 134.792 96.0198 135.008 97.5143 133.274C100.713 129.572 104.463 126.721 108.717 125.586C107.223 114.815 105.766 104.299 104.274 93.5332C96.2604 93.5332 87.8897 93.5003 79.5212 93.6059C78.9958 93.6129 78.0885 94.6335 78.0201 95.2646C76.7729 106.988 75.6912 118.742 71.0952 130.705ZM40.3562 44.9173C40.5041 44.814 40.6542 44.7085 40.8021 44.6029C41.3275 39.594 41.8838 34.5897 42.3451 29.5785C42.4136 28.8207 42.2921 27.7321 41.8352 27.2816C38.3165 23.7977 34.9788 19.99 31.0274 17.1512C26.6941 14.0332 21.937 14.9458 18.0651 18.5494C12.4604 23.7719 7.67677 29.799 4.62825 37.1188C3.93069 38.7893 2.76956 41.5365 3.82693 42.7424C4.70109 44.2744 7.43615 42.6064 9.02774 41.9565C12.5597 40.516 15.8908 40.5817 18.7031 43.2468C20.8443 45.2762 22.6898 47.7302 24.3697 50.2218C26.5242 53.4125 28.2239 56.9551 30.4402 60.0895C31.4049 61.4526 33.0517 62.5529 34.5969 63.1066C37.0339 63.9817 39.652 64.2937 42.0957 64.8216C41.8418 62.4872 41.5769 59.8033 41.2326 57.1358C41.173 56.6595 40.8992 56.0331 40.5394 55.8079C36.034 52.948 34.1267 48.3778 32.7161 43.2797C32.2746 41.689 30.853 40.1782 29.5285 39.1412C27.6544 37.6842 30.2106 35.3358 32.3762 39.2374C34.9677 43.9038 39.1465 54.8037 41.6211 52.3614C41.769 50.8248 41.0096 49.7948 40.2348 49.2036C37.2988 46.9584 36.8397 44.0563 37.2966 40.5301C37.4622 39.2421 36.9103 37.7781 36.4578 36.483C35.8618 34.7798 38.4975 34.1158 38.758 36.9523C39.003 39.6362 39.0538 44.6897 40.3562 44.9173ZM143.849 64.9553C145.778 64.4181 147.721 63.4491 149.677 63.428C152.884 63.3905 154.705 61.5793 156.233 59.0103C157.176 57.4267 158.048 55.7915 159.059 54.2594C161.231 50.9702 163.231 47.4956 165.747 44.5302C168.802 40.9312 172.643 40.0444 177.054 42.116C178.517 42.8034 180.747 44.2744 182.195 42.1958C182.939 40.1101 181.999 39.0074 181.341 37.4215C178.268 30.0078 173.484 23.8798 167.809 18.5729C164.979 15.9242 161.568 14.6995 157.734 15.8585C151.527 17.7353 147.469 22.5284 143.679 27.664C143.483 27.9292 143.374 28.3773 143.414 28.7151C144.006 33.9446 144.628 39.1693 145.244 44.3988C146.531 46.5994 146.955 39.3406 147.253 36.6613C147.589 33.663 150.516 34.9393 149.54 36.2508C148.421 37.7523 148.2 39.045 148.633 40.8773C149.344 43.892 148.578 46.5525 146.341 48.7672C145.45 49.6494 145.33 50.3227 144.657 51.4535C143.977 52.8471 144.737 53.5627 145.313 52.8096C149.383 51.6084 150.121 41.2456 154.26 37.825C162.997 33.3275 153.661 39.0309 152.249 46.217C151.56 50.0834 149.151 53.2999 145.845 55.524C145.288 55.897 144.809 56.7557 144.701 57.4619C144.322 59.9417 144.118 62.4544 143.849 64.9553ZM106.346 129.806C105.141 130.644 104.296 131.296 103.395 131.845C101.168 133.206 100.406 134.864 101.655 137.572C102.126 138.59 101.896 140.289 101.426 141.417C100.121 144.551 99.3332 147.547 101.121 150.787C102.04 152.446 101.951 154.091 100.79 155.764C100.329 156.427 100.115 157.826 100.47 158.445C100.843 159.095 102.123 159.637 102.859 159.475C105.823 158.825 108.402 159.599 110.958 161.11C112.077 161.77 113.397 162.039 114.492 162.438C115.938 162.717 119.381 162.539 117.479 160.132C116.346 158.924 113.62 157.448 111.929 156.514C105.413 152.922 104.02 151.74 107.194 145C108.19 142.888 108.56 140.169 108.417 137.788C108.262 135.245 107.159 132.767 106.346 129.806ZM66.9474 161.978C71.0643 160.554 74.9142 157.694 79.7397 158.881C81.1525 159.224 81.5631 157.012 80.9141 155.294C80.349 153.795 79.7485 151.641 80.3445 150.443C82.0664 146.982 81.3512 143.986 79.9538 140.819C79.583 139.977 79.6669 138.916 79.3711 138.025C78.8302 136.385 78.4837 134.496 77.4616 133.269C76.3071 131.88 74.2674 132.852 73.5919 134.681C72.3248 138.109 72.3226 141.398 74.1327 144.652C74.7994 145.844 75.4131 147.172 75.6382 148.514C75.817 149.6 75.764 151.245 75.1327 151.874C73.5698 153.436 71.6692 154.647 69.8127 155.836C68.0644 156.96 63.7929 157.769 62.7819 159.578C61.6362 162.558 64.9916 162.459 66.9474 161.978ZM108.037 93.6646C108.413 95.7643 106.808 98.1104 109.483 99.443C113.145 101.266 114.558 104.658 115.123 108.64C115.633 112.255 117.929 115.981 114.472 118.899C112.179 121.818 116.318 119.936 117.514 124.875C119.033 127.662 120.181 124.239 123.284 124.018C124.32 122.404 122.505 118.826 121.662 118.12C119.772 116.548 119.298 114.491 119.161 112.208C119 109.505 118.812 106.791 118.808 104.088C118.797 98.4788 113.708 93.2915 108.037 93.6646ZM29.672 12.8461C37.535 17.8315 40.0339 20.3419 43.4224 24.2669C45.6298 19.7389 49.0338 14.852 52.8968 10.7463C51.9211 11.1264 50.5106 11.1311 49.9344 11.6965C48.1044 13.4983 46.1883 13.0643 44.0493 12.5598C39.4931 11.4877 33.8132 10.6454 29.672 12.8461ZM133.01 11.0372C137.01 15.584 139.909 20.4592 141.84 24.7478C145.567 20.1284 151.015 15.6567 155.913 12.9446C152.465 11.3305 146.589 12.1751 142.249 12.5505C139.862 12.7569 137.666 13.5171 135.617 11.5229C135.112 11.0302 133.631 10.6712 133.01 11.0372ZM64.2962 109.632C73.2277 105.773 75.9583 101.458 74.8568 93.6716C72.6647 92.6041 71.7222 93.5566 70.742 95.7737C69.1482 99.375 66.9474 102.669 65.1196 106.167C64.6516 107.063 64.6185 108.213 64.2962 109.632ZM108.108 102.453C109.042 108.231 109.85 113.236 110.755 118.834C113.432 115.068 113.593 115.021 112.788 111.882C111.975 108.708 112.355 104.839 108.108 102.453ZM57.2411 113.111C57.3427 110.193 55.1926 107.108 53.6959 107.783C52.2655 108.429 50.2655 109.501 50.3759 112.168C50.4377 113.9 52.8085 114.578 54.175 114.822C55.1904 114.998 56.4553 113.588 57.2411 113.111Z" fill="#111111"/>
<path id="Vector_2" fill-rule="evenodd" clip-rule="evenodd" d="M68.3115 64.9952C61.9187 64.9788 56.8172 59.6344 56.804 52.9315C56.7907 46.1419 62.06 40.6169 68.4705 40.6943C74.8258 40.7717 79.7926 46.1748 79.7485 52.9644C79.7087 59.808 74.7618 65.0093 68.3115 64.9952Z" fill="#111111"/>
<path id="Vector_3" fill-rule="evenodd" clip-rule="evenodd" d="M116.739 64.9952C110.322 64.953 105.439 59.6836 105.452 52.8142C105.466 46.034 110.488 40.6966 116.861 40.6966C123.329 40.6943 128.404 46.1842 128.311 53.0793C128.218 59.8643 123.198 65.0374 116.739 64.9952Z" fill="#111111"/>
<path id="Vector_4" fill-rule="evenodd" clip-rule="evenodd" d="M55.7642 39.4462C62.2894 34.7329 69.073 31.7392 76.9736 35.5446C79.7461 36.8772 82.0176 36.1898 83.649 33.0249C85.0816 30.2377 85.8432 27.0588 86.8255 24.2669C87.7924 28.1309 87.278 32.0818 85.0132 35.7088C83.1479 38.6907 79.925 40.3635 76.989 38.8456C70.0443 35.2514 63.4197 37.1259 56.6913 39.1905C56.3845 39.2843 56.0732 39.3617 55.7642 39.4462Z" fill="#111111"/>
<path id="Vector_5" fill-rule="evenodd" clip-rule="evenodd" d="M95.0795 24.1238C95.9558 26.9414 96.5276 29.684 97.6467 32.1474C99.426 36.0678 101.901 36.8326 105.66 35.188C112.881 32.0301 119.203 34.6906 125.242 39.0708C123.991 38.7376 122.741 38.381 121.481 38.0807C120.108 37.7546 118.721 37.4778 117.34 37.1892C113.532 36.3892 109.881 36.5886 106.249 38.374C102.115 40.4081 98.4039 38.8831 96.1832 34.6367C94.6645 31.7322 94.309 28.4899 95.0795 24.1238Z" fill="#111111"/>
<path id="Vector_6" fill-rule="evenodd" clip-rule="evenodd" d="M80.9133 67.7439C82.9278 68.0793 84.1997 69.5118 85.278 70.7622C86.3562 72.0126 86.0242 77.6523 89.5121 77.5609C93 77.4695 94.7482 69.3707 99.4435 67.4609C97.5208 70.9707 96.0197 74.2975 93.9756 77.1879C92.9513 78.6354 90.8277 80.2214 89.3973 80.0384C87.9669 79.8554 85.4546 78.0046 84.629 76.36C82.9204 72.9628 82.6815 72.1053 80.9133 67.7439Z" fill="#111111"/>
<path id="Vector_7" fill-rule="evenodd" clip-rule="evenodd" d="M90.457 45.6098C92.9006 51.2076 93.596 56.9344 91.7042 62.8489C91.3488 62.8771 90.9912 62.9052 90.6358 62.9357C90.1921 57.1948 89.7506 51.4516 89.3069 45.7107C89.691 45.6778 90.0729 45.6426 90.457 45.6098Z" fill="#111111"/>
</g>
</g>
<defs>
<clipPath id="clip0_4_25">
<rect width="186" height="165" fill="white"/>
</clipPath>
</defs>
</svg>
