<svg width="60" height="60" viewBox="0 0 60 60" fill="none" xmlns="http://www.w3.org/2000/svg">
<g id="license_svgrepo.com">
<path id="Vector" fill-rule="evenodd" clip-rule="evenodd" d="M22.5 5.00001H22.3354C20.1192 4.99988 18.2097 4.99978 16.6805 5.20538C15.0417 5.42571 13.4709 5.92256 12.1967 7.19671C10.9226 8.47088 10.4257 10.0418 10.2053 11.6805C9.99975 13.2097 9.99988 15.1192 10 17.3354V17.5V26.25V40.4268C7.08703 41.4563 5 44.2345 5 47.5C5 51.6423 8.35788 55 12.5 55H39.9915H40C44.1423 55 47.5 51.6423 47.5 47.5V22.5V17.5H48.75C52.2018 17.5 55 14.7018 55 11.25C55 7.79823 52.2018 5.00003 48.75 5.00003C48.4902 5.00003 48.2342 5.01586 47.983 5.04663C47.8267 5.01603 47.6652 5.00001 47.5 5.00001H22.5ZM32.9268 50C32.6505 49.218 32.5 48.3765 32.5 47.5V45H12.5C11.1193 45 10 46.1193 10 47.5C10 48.8808 11.1193 50 12.5 50H32.9268ZM47.5 12.5H48.75C49.4403 12.5 50 11.9404 50 11.25C50 10.5597 49.4403 10 48.75 10C48.0597 10 47.5 10.5597 47.5 11.25V12.5ZM20 17.5C20 16.1193 21.1193 15 22.5 15H35C36.3808 15 37.5 16.1193 37.5 17.5C37.5 18.8807 36.3808 20 35 20H22.5C21.1193 20 20 18.8807 20 17.5ZM22.5 25C21.1193 25 20 26.1193 20 27.5C20 28.8808 21.1193 30 22.5 30H35C36.3808 30 37.5 28.8808 37.5 27.5C37.5 26.1193 36.3808 25 35 25H22.5Z" fill="black"/>
</g>
</svg>
